# xmcd
#
# Track frame offsets:
#	150
#	21562
#	53300
#	89854
#	108650
#	140935
#	167869
#	178615
#
# Disc length: 2951 seconds
#
# Revision: 2
# Processed by: cddbd v1.5.2PL0 Copyright (c) Steve Scherf et al.
# Submitted via: audiograbber 1.83.01
#
DISCID=750b8508
DTITLE=Schiller - Die Einlassmusik Vol. 10
DYEAR=2013
DGENRE=New Age
TTITLE0=Teil I
TTITLE1=Teil II
TTITLE2=Teil III
TTITLE3=Teil IV
TTITLE4=Teil V
TTITLE5=Teil VI
TTITLE6=Teil VII
TTITLE7=Teil VIII
EXTD=
EXTT0=
EXTT1=
EXTT2=
EXTT3=
EXTT4=
EXTT5=
EXTT6=
EXTT7=
PLAYORDER=
